Coordinates
version=1
nRows=24
nColumns=38
inDegrees=no

Units are S.I. units (second, meters, Newtons, ...)
If the header above contains a line with 'inDegrees', this indicates whether rotational values are in degrees (yes) or radians (no).

endheader
time	pelvis_tilt	pelvis_list	pelvis_rotation	pelvis_tx	pelvis_ty	pelvis_tz	hip_flexion_r	hip_adduction_r	hip_rotation_r	knee_angle_r	ankle_angle_r	subtalar_angle_r	mtp_angle_r	hip_flexion_l	hip_adduction_l	hip_rotation_l	knee_angle_l	ankle_angle_l	subtalar_angle_l	mtp_angle_l	lumbar_extension	lumbar_bending	lumbar_rotation	arm_flex_r	arm_add_r	arm_rot_r	elbow_flex_r	pro_sup_r	wrist_flex_r	wrist_dev_r	arm_flex_l	arm_add_l	arm_rot_l	elbow_flex_l	pro_sup_l	wrist_flex_l	wrist_dev_l
1.25	2.39978	1.41969	-0.766664	0.769221	0.470334	0.998513	0.254462	0.0278359	-0.521509	0.257208	0.0639567	0	0	-0.291531	-0.144571	-0.182892	0.363557	0.251208	0	0	-0.357219	0.107151	0.0439106	0.0647786	-0.2265	0.0943388	0.293847	1.22852	0	0	0.171393	-0.200035	0.389035	0.273633	1.36763	0	0
1.26	2.38662	1.41041	-0.745606	0.770447	0.482001	0.99834	0.243531	0.0355292	-0.531144	0.263323	0.0368946	0	0	-0.290914	-0.16344	-0.183865	0.394868	0.245663	0	0	-0.356714	0.120529	0.0412039	0.057394	-0.227313	0.0886539	0.29336	1.23574	0	0	0.165689	-0.198139	0.385637	0.273173	1.37559	0	0
1.27	2.37839	1.40556	-0.727325	0.771743	0.4932	0.997583	0.247677	0.0430234	-0.528536	0.287372	0.00167101	0	0	-0.280675	-0.172612	-0.169789	0.434628	0.231195	0	0	-0.352722	0.129574	0.0371143	0.0510001	-0.224122	0.0603475	0.286782	1.27322	0	0	0.162114	-0.195508	0.370679	0.269587	1.39855	0	0
1.28	2.36337	1.40347	-0.712446	0.773557	0.505046	0.997897	0.24438	0.0332957	-0.549196	0.308273	-0.00559902	0	0	-0.271439	-0.191071	-0.178222	0.471606	0.223279	0	0	-0.347687	0.135033	0.0395565	0.0447801	-0.223637	0.057403	0.28541	1.27588	0	0	0.155904	-0.193919	0.364615	0.270059	1.40403	0	0
1.29	2.34451	1.40165	-0.691647	0.775245	0.516017	0.998156	0.250312	0.0286481	-0.55934	0.342291	-0.00439819	0	0	-0.252675	-0.203831	-0.173162	0.51951	0.202488	0	0	-0.342698	0.140714	0.0408409	0.0396982	-0.223314	0.0551533	0.284021	1.27755	0	0	0.150541	-0.192741	0.357873	0.273163	1.41017	0	0
1.3	2.31738	1.40163	-0.66388	0.776913	0.526757	0.998383	0.257148	0.0243881	-0.568165	0.373773	-0.000608918	0	0	-0.227717	-0.215248	-0.166125	0.571916	0.175241	0	0	-0.335489	0.145559	0.0421562	0.0353822	-0.22328	0.0529088	0.282856	1.27866	0	0	0.144773	-0.191747	0.350516	0.276995	1.41631	0	0
1.31	2.27924	1.40226	-0.625947	0.778643	0.537316	0.998436	0.262782	0.0235093	-0.57474	0.397297	-0.00104241	0	0	-0.197934	-0.22644	-0.156157	0.626961	0.144186	0	0	-0.32622	0.150736	0.0431808	0.0317405	-0.223614	0.05139	0.281579	1.28001	0	0	0.138458	-0.191422	0.342941	0.281237	1.42241	0	0
1.32	2.2055	1.40482	-0.552516	0.780456	0.547476	0.997846	0.272984	0.0261287	-0.580873	0.415032	-0.00237149	0	0	-0.157203	-0.23898	-0.143084	0.687498	0.111996	0	0	-0.310316	0.157468	0.0427275	0.0247827	-0.22868	0.0842722	0.288761	1.2391	0	0	0.128773	-0.194347	0.347651	0.293219	1.41218	0	0
1.33	2.13719	1.40338	-0.483807	0.782259	0.557212	0.99742	0.276104	0.0348276	-0.583823	0.421238	-0.000974338	0	0	-0.117309	-0.252373	-0.12652	0.748384	0.0793303	0	0	-0.29852	0.166531	0.0424956	0.0221059	-0.231215	0.0892479	0.289967	1.23407	0	0	0.122273	-0.196534	0.351837	0.301861	1.40378	0	0
1.34	2.0647	1.40141	-0.409443	0.783921	0.566578	0.996865	0.278463	0.0445982	-0.586302	0.423011	0.00496113	0	0	-0.0741792	-0.263714	-0.10445	0.809173	0.0458033	0	0	-0.286638	0.176316	0.040606	0.0262857	-0.227473	0.0412273	0.277266	1.29821	0	0	0.122442	-0.189563	0.30159	0.291845	1.46834	0	0
1.35	1.99208	1.3992	-0.335279	0.785517	0.575368	0.995905	0.28334	0.053181	-0.58764	0.427886	0.0132435	0	0	-0.0282935	-0.272953	-0.0811686	0.871237	0.0144718	0	0	-0.2717	0.184725	0.0383731	-0.000484349	-0.263293	0.270746	0.346452	1.0041	0	0	0.102033	-0.237375	0.561841	0.377342	1.08479	0	0
1.36	1.94372	1.39682	-0.280304	0.786691	0.584603	0.995696	0.276218	0.0723116	-0.563819	0.406219	0.0134598	0	0	0.0133099	-0.277721	-0.0515561	0.92705	-0.0144687	0	0	-0.26306	0.193225	0.0319257	0.0158383	-0.237636	0.0904711	0.297157	1.23305	0	0	0.109041	-0.207383	0.392419	0.328727	1.35594	0	0
1.37	1.9053	1.38857	-0.241306	0.78839	0.593089	0.99615	0.276051	0.0765183	-0.587255	0.421337	0.0205752	0	0	0.0500271	-0.287834	-0.0302573	0.979834	-0.0335645	0	0	-0.259158	0.205098	0.0328559	0.017133	-0.23945	0.0870005	0.298314	1.23714	0	0	0.11018	-0.206637	0.392523	0.330013	1.35887	0	0
1.38	1.89123	1.38686	-0.221774	0.789516	0.602031	0.996596	0.264688	0.0919148	-0.561777	0.40394	0.024663	0	0	0.0837344	-0.287202	-0.00520916	1.02822	-0.0417214	0	0	-0.254559	0.209241	0.028274	0.0212449	-0.23311	0.0346618	0.28804	1.30156	0	0	0.109406	-0.211635	0.418604	0.338293	1.33407	0	0
1.39	1.89332	1.38346	-0.223371	0.790963	0.610556	0.997844	0.252253	0.100043	-0.557408	0.399612	0.0313682	0	0	0.110744	-0.287375	0.0124764	1.07096	-0.0390761	0	0	-0.256039	0.213412	0.0280372	0.0235741	-0.232911	0.0336469	0.288495	1.30028	0	0	0.111536	-0.211418	0.420908	0.338479	1.33231	0	0
1.4	1.90126	1.38212	-0.234309	0.792585	0.618938	0.999373	0.238282	0.106391	-0.55106	0.394172	0.0379007	0	0	0.134256	-0.28534	0.0245477	1.10827	-0.0303745	0	0	-0.259131	0.214352	0.0304506	0.0271897	-0.23233	0.0340703	0.287503	1.29842	0	0	0.113706	-0.210716	0.419801	0.338484	1.33126	0	0
1.41	1.91288	1.38189	-0.250806	0.794286	0.627152	1.00107	0.222777	0.112088	-0.543461	0.386582	0.0439757	0	0	0.15509	-0.282416	0.0326851	1.13928	-0.0194389	0	0	-0.263358	0.213588	0.0339978	0.0320043	-0.23179	0.0360644	0.285927	1.29587	0	0	0.115798	-0.209869	0.416733	0.338571	1.33004	0	0
1.42	1.92329	1.38243	-0.267046	0.795973	0.635179	1.0028	0.206842	0.11726	-0.536316	0.377087	0.0492892	0	0	0.175112	-0.278353	0.0386451	1.16477	-0.00957134	0	0	-0.267623	0.21214	0.0377429	0.0377694	-0.231714	0.0395317	0.284385	1.29258	0	0	0.118181	-0.20873	0.41347	0.337799	1.32822	0	0
1.43	1.93153	1.38338	-0.281355	0.797596	0.64306	1.00449	0.190803	0.121826	-0.531115	0.366286	0.0539144	0	0	0.19498	-0.273352	0.0435318	1.18472	-0.003775	0	0	-0.271587	0.210618	0.0412867	0.0437936	-0.232163	0.0442832	0.28341	1.28882	0	0	0.120625	-0.207656	0.410905	0.337152	1.3257	0	0
1.44	1.93413	1.38484	-0.290383	0.799172	0.650844	1.00602	0.175987	0.125515	-0.527938	0.355688	0.0583726	0	0	0.214892	-0.267961	0.0477942	1.19906	-0.0016386	0	0	-0.274364	0.209076	0.045151	0.0494122	-0.233272	0.0497552	0.283284	1.28465	0	0	0.122519	-0.206949	0.409132	0.338409	1.32255	0	0
1.45	1.95418	1.385	-0.310191	0.801201	0.658505	1.00743	0.160365	0.139268	-0.513364	0.341696	0.0517118	0	0	0.233888	-0.26973	0.0555299	1.20955	0.0053633	0	0	-0.279375	0.207613	0.0454909	0.0509804	-0.236819	0.0838093	0.290417	1.24935	0	0	0.126446	-0.206461	0.39758	0.338061	1.32907	0	0
1.46	1.9558	1.38464	-0.31654	0.802679	0.666324	1.00877	0.143175	0.146127	-0.509067	0.325576	0.051735	0	0	0.252026	-0.267292	0.0596052	1.21565	0.00984848	0	0	-0.281913	0.208579	0.0490884	0.054738	-0.239242	0.0915506	0.292826	1.24469	0	0	0.129176	-0.205972	0.398422	0.338941	1.32534	0	0
1.47	1.96246	1.37739	-0.328353	0.804242	0.674078	1.01073	0.119543	0.160234	-0.509305	0.302402	0.046552	0	0	0.265803	-0.273266	0.0618797	1.21569	0.013197	0	0	-0.28924	0.216166	0.0558473	0.058964	-0.242998	0.0988245	0.296184	1.24021	0	0	0.133749	-0.204384	0.401459	0.339051	1.32138	0	0
1.48	1.96568	1.38696	-0.336577	0.805513	0.681914	1.01123	0.109054	0.155582	-0.496168	0.29481	0.0539284	0	0	0.283673	-0.260161	0.0616583	1.21216	0.0180961	0	0	-0.287047	0.20694	0.0571559	0.0605969	-0.244296	0.104912	0.300514	1.23588	0	0	0.135774	-0.20638	0.404886	0.341573	1.31779	0	0
